<svg version="1.1" xmlns="http://www.w3.org/2000/svg" xmlns:xlink="http://www.w3.org/1999/xlink" width="37.37037" height="47.64274" viewBox="0,0,37.37037,47.64274"><defs><linearGradient x1="248.8" y1="179.67045" x2="286.16996" y2="179.67045" gradientUnits="userSpaceOnUse" id="color-1"><stop offset="0.012" stop-color="#66b3e3"/><stop offset="1" stop-color="#1c75bc"/></linearGradient></defs><g transform="translate(-248.79963,-155.84926)"><g data-paper-data="{&quot;isPaintingLayer&quot;:true}" fill-rule="nonzero" stroke-linejoin="miter" stroke-miterlimit="10" stroke-dasharray="" stroke-dashoffset="0" style="mix-blend-mode: normal"><path d="M286.16959,163.3479v32.64633c0,4.14103 -1.58145,7.49777 -3.53372,7.49777h-30.30293c-1.95145,0 -3.53331,-3.35674 -3.53331,-7.49777v-32.64633c0,-4.14016 1.58186,-7.49864 3.53331,-7.49864h30.30334c1.95104,0 3.53372,3.35761 3.53372,7.49864z" data-paper-data="{&quot;index&quot;:null}" fill="url(#color-1)" stroke="none" stroke-width="1" stroke-linecap="butt"/><path d="M281.58036,200.25747h-28.19186c-1.09305,0 -1.98284,-2.02869 -1.98284,-4.52271v-32.64633c0,-2.49403 0.88979,-4.52271 1.98284,-4.52271h28.19186c1.09419,0 1.98322,2.02869 1.98322,4.52271v32.64546c0,2.49403 -0.88903,4.52359 -1.98322,4.52359z" data-paper-data="{&quot;index&quot;:null}" fill="#27aae1" stroke="none" stroke-width="1" stroke-linecap="butt"/><path d="M264.48898,163.65388l10.28543,16.34923l-12.23611,14.50706" data-paper-data="{&quot;index&quot;:null}" fill="none" stroke="#000000" stroke-width="10" stroke-linecap="round"/></g></g></svg>